<?xml version="1.0" encoding="UTF-8" standalone="no"?>
<svg
   xmlns:dc="http://purl.org/dc/elements/1.1/"
   xmlns:cc="http://creativecommons.org/ns#"
   xmlns:rdf="http://www.w3.org/1999/02/22-rdf-syntax-ns#"
   xmlns:svg="http://www.w3.org/2000/svg"
   xmlns="http://www.w3.org/2000/svg"
   xmlns:sodipodi="http://sodipodi.sourceforge.net/DTD/sodipodi-0.dtd"
   xmlns:inkscape="http://www.inkscape.org/namespaces/inkscape"
   version="1.0"
   width="445.646"
   height="158.54199"
   viewBox="0 0 445.646 158.54199"
   id="svg2583"
   xml:space="preserve"
   style="overflow:visible"
   sodipodi:docname="Negative_and_positive_skew_diagrams.svg"
   inkscape:export-filename="/home/francisco/Syncthing/Francisco syncs/Classes/FCUL/2020-2021/Epidemiologia/FE2021/docs/classes/C05_assets/bias.png"
   inkscape:export-xdpi="161.17812"
   inkscape:export-ydpi="161.17812"
   inkscape:version="1.0.2 (e86c870879, 2021-01-15)"><metadata
   id="metadata39"><rdf:RDF><cc:Work
       rdf:about=""><dc:format>image/svg+xml</dc:format><dc:type
         rdf:resource="http://purl.org/dc/dcmitype/StillImage" /><dc:title></dc:title></cc:Work></rdf:RDF></metadata><sodipodi:namedview
   pagecolor="#000000"
   bordercolor="#666666"
   borderopacity="1"
   objecttolerance="10"
   gridtolerance="10"
   guidetolerance="10"
   inkscape:pageopacity="0"
   inkscape:pageshadow="2"
   inkscape:window-width="2560"
   inkscape:window-height="1384"
   id="namedview37"
   showgrid="false"
   inkscape:zoom="1.9183211"
   inkscape:cx="93.472641"
   inkscape:cy="-49.793437"
   inkscape:window-x="0"
   inkscape:window-y="0"
   inkscape:window-maximized="1"
   inkscape:current-layer="g2636"
   inkscape:document-rotation="0" /><defs
   id="defs2655"><marker
   style="overflow:visible;"
   id="Arrow1Lend"
   refX="0.0"
   refY="0.0"
   orient="auto"
   inkscape:stockid="Arrow1Lend"
   inkscape:isstock="true"><path
     transform="scale(0.8) rotate(180) translate(12.5,0)"
     style="fill-rule:evenodd;stroke:#000000;stroke-width:1.0pt;"
     d="M 0.0,0.0 L 5.0,-5.0 L -12.5,0.0 L 5.0,5.0 L 0.0,0.0 z "
     id="path888" /></marker>
			
			
			
			
			
			
			
			
			
			
		</defs>
	<style
   type="text/css"
   id="style2585" />
	
		<g
   transform="translate(-226,0)"
   id="g2590"
   style="opacity:0.05">
				<g
   id="g2592">
					<path
   d="M 385.81885,18.89307 C 352.96045,18.41065 325.32471,122.95703 251.23487,122.73828 L 345.23487,122.73828 C 360.84424,122.73828 365.00635,18.89307 385.81885,18.89307 z"
   id="path2594"
   style="fill:#919bc9" />
				</g>
			</g><g
   transform="translate(-226,0)"
   id="g2624">
				<g
   id="g2626">
					<g
   id="g2628">
						<line
   id="line2630"
   y2="131.03516"
   x2="244.61084"
   y1="6.0351601"
   x1="244.61084"
   style="fill:none;stroke:#ffffff" />
						<path
   d="M 244.61084,0 C 245.66455,2.83984 247.4624,6.36328 249.36572,8.54688 L 244.61084,6.82715 L 239.85596,8.54688 C 241.75928,6.36328 243.55713,2.83984 244.61084,0 z"
   id="path2632"
   style="fill:#ffffff;fill-opacity:1" />
					</g>
				</g>
				<g
   id="g2634">
					<g
   id="g2636">
						<line
   id="line2638"
   y2="126.03516"
   x2="439.61084"
   y1="126.03516"
   x1="239.61084"
   style="fill:none;stroke:#ffffff" />
						<path
   d="M 445.646,126.03516 C 442.80616,127.08887 439.28272,128.88672 437.09912,130.79004 L 438.81885,126.03516 L 437.09912,121.28028 C 439.28271,123.18359 442.80615,124.98242 445.646,126.03516 z"
   id="path2640"
   style="fill:#ffffff;fill-opacity:1" />
					</g>
				</g>
			</g><path
   d="M 119.23486,122.73926 C 134.84424,122.73926 139.00634,18.89258 159.81884,18.89258 C 180.63134,18.89258 184.79345,122.73926 200.40282,122.73926"
   id="path2642"
   style="opacity:0.5;fill:none;stroke:#919bc9;stroke-width:1;stroke-dasharray:5, 5" /><path
   d="M 25.23486,122.73926 C 99.3247,122.95703 126.96142,18.41162 159.81884,18.89258 C 180.62939,19.19727 184.79345,122.73926 200.40282,122.73926"
   id="path2644"
   style="fill:none;stroke:#ff0000;stroke-width:1" />


	</svg>
