<?xml version="1.0" encoding="UTF-8" standalone="no"?>
<svg
   xmlns:dc="http://purl.org/dc/elements/1.1/"
   xmlns:cc="http://creativecommons.org/ns#"
   xmlns:rdf="http://www.w3.org/1999/02/22-rdf-syntax-ns#"
   xmlns:svg="http://www.w3.org/2000/svg"
   xmlns="http://www.w3.org/2000/svg"
   xmlns:sodipodi="http://sodipodi.sourceforge.net/DTD/sodipodi-0.dtd"
   xmlns:inkscape="http://www.inkscape.org/namespaces/inkscape"
   height="300px"
   width="300px"
   fill="#000000"
   viewBox="0 0 80 80"
   version="1.1"
   x="0px"
   y="0px"
   id="svg44"
   sodipodi:docname="blindfold.svg"
   inkscape:version="1.0.2 (e86c870879, 2021-01-15)"
   inkscape:export-filename="/home/francisco/Syncthing/Francisco syncs/Classes/FCUL/2020-2021/Epidemiologia/FE2021/docs/classes/C04_assets/blindfold.png"
   inkscape:export-xdpi="233.38393"
   inkscape:export-ydpi="233.38393">
  <metadata
     id="metadata50">
    <rdf:RDF>
      <cc:Work
         rdf:about="">
        <dc:format>image/svg+xml</dc:format>
        <dc:type
           rdf:resource="http://purl.org/dc/dcmitype/StillImage" />
        <dc:title></dc:title>
      </cc:Work>
    </rdf:RDF>
  </metadata>
  <defs
     id="defs48" />
  <sodipodi:namedview
     pagecolor="#000000"
     bordercolor="#666666"
     borderopacity="1"
     objecttolerance="10"
     gridtolerance="10"
     guidetolerance="10"
     inkscape:pageopacity="0"
     inkscape:pageshadow="2"
     inkscape:window-width="2560"
     inkscape:window-height="1384"
     id="namedview46"
     showgrid="false"
     inkscape:zoom="3.4742513"
     inkscape:cx="83.465252"
     inkscape:cy="31.700805"
     inkscape:window-x="0"
     inkscape:window-y="0"
     inkscape:window-maximized="1"
     inkscape:current-layer="svg44" />
  <path
     d="m 10.899404,9.6663176 c -2.3445991,0 -4.3016641,1.4737934 -5.0832181,3.5448764 l 0.267538,0.200653 C 9.1610569,12.874329 12.034306,12.019334 15.648201,12.40858 14.701064,10.771306 12.926929,9.6663176 10.899404,9.6663176 Z m -4.8156801,4.6150274 -0.60196,0.468191 c -0.0095,0.131816 -0.06689,0.267083 -0.06689,0.401307 0,3.025291 2.459238,5.484525 5.4845251,5.484525 2.766389,0 5.0464,-2.084641 5.417641,-4.748796 C 10.430815,14.539474 6.9799499,14.437989 6.0837189,14.281345 Z"
     fill="#000000"
     fill-opacity="1"
     stroke="none"
     id="path24"
     style="fill:#e7ffd1;fill-opacity:1" />
  <path
     style="color:#000000;text-indent:0;text-transform:none;direction:ltr;baseline-shift:baseline;fill:#5675d8;fill-opacity:1;enable-background:accumulate"
     d="m 3.9099799,11.254824 -0.167212,0.167211 -1.003266,1.170478 -0.167212,0.250816 0.250817,0.08361 1.588505,0.836056 -1.170478,0.418028 -0.16721,0.08361 v 0.167211 l 0.16721,1.755717 v 0.418028 l 0.334423,-0.250817 2.591772,-1.839322 c 0.53029,0.0792 1.523067,0.145032 3.177012,0.334422 1.7400901,0.199263 4.1295691,0.566512 7.1064741,1.254084 l 0.16721,0.08361 0.08361,-0.250816 c 0.4311,-1.419086 -0.01632,-2.625501 -0.668844,-3.678645 l -0.08361,-0.08361 h -0.08361 c -3.692716,-0.440894 -6.6391761,0.457302 -9.6982471,1.003267 l -2.090138,-1.755717 -0.167212,-0.167211 z m 0,0.668844 2.006533,1.672112 h 0.08361 0.08361 c 3.096026,-0.540782 5.9625891,-1.305382 9.5310341,-0.919662 0.539889,0.907494 0.948565,1.806051 0.668845,2.926195 -2.844788,-0.643481 -5.165277,-0.976917 -6.8556561,-1.170478 -1.753943,-0.200841 -2.940465,-0.263846 -3.344223,-0.334423 h -0.08361 -0.08361 l -2.25735,1.588507 -0.08361,-1.086873 1.421294,-0.585239 0.501634,-0.167211 -0.418028,-0.250816 -1.755716,-0.919662 0.585239,-0.75245 z"
     fill="#000000"
     fill-opacity="1"
     fill-rule="nonzero"
     stroke="none"
     marker="none"
     visibility="visible"
     display="inline"
     overflow="visible"
     id="path42" />
  <path
     style="fill:#5675d8;fill-opacity:1;stroke:none;stroke-width:0.0383776;stroke-linecap:round;stroke-linejoin:round"
     d="m 3.6621832,15.482953 c -0.011688,-0.07915 -0.03225,-0.30855 -0.04569,-0.50977 L 3.5920558,14.60733 4.3539523,14.296619 c 0.4190432,-0.170891 0.8548859,-0.340862 0.9685392,-0.377713 l 0.2066427,-0.067 -0.2066427,-0.128342 C 5.2088382,13.652974 4.7234558,13.391767 4.2438643,13.143102 3.7642728,12.894437 3.3713824,12.68022 3.3707747,12.667062 3.3701614,12.653905 3.491343,12.485921 3.640055,12.293765 l 0.2703858,-0.349375 0.9864798,0.823703 c 0.928948,0.775665 0.9956165,0.823734 1.1431427,0.824234 0.086164,2.93e-4 0.8057416,-0.119782 1.59906,-0.26683 2.2760304,-0.421882 3.0371957,-0.540087 4.2503677,-0.660062 0.552332,-0.05462 2.608464,-0.06656 3.266373,-0.01897 l 0.445621,0.03224 0.174299,0.313161 c 0.431594,0.775441 0.584532,1.329374 0.556267,2.014769 -0.01015,0.246145 -0.03056,0.475713 -0.04535,0.510152 -0.02448,0.057 -0.06368,0.05451 -0.437089,-0.02775 -2.80855,-0.618723 -5.514116,-1.018253 -8.9721001,-1.324907 L 5.9143679,14.07872 4.81619,14.852796 c -0.6039979,0.425742 -1.1059576,0.774076 -1.1154659,0.774076 -0.00951,0 -0.026852,-0.06476 -0.038542,-0.143916 z"
     id="path941" />
  <path
     d="m 30.882274,9.6663176 c -2.344599,0 -4.301664,1.4737934 -5.083218,3.5448764 l 0.267538,0.200653 c 3.077333,-0.537518 5.950582,-1.392513 9.564477,-1.003267 -0.947137,-1.637274 -2.721272,-2.7422624 -4.748797,-2.7422624 z m -4.81568,4.6150274 -0.601959,0.468191 c -0.0095,0.131816 -0.06689,0.267083 -0.06689,0.401307 0,3.025291 2.459237,5.484525 5.484524,5.484525 2.766389,0 5.0464,-2.084641 5.417641,-4.748796 -5.886225,-1.347098 -9.33709,-1.448583 -10.233321,-1.605227 z"
     fill="#000000"
     fill-opacity="1"
     stroke="none"
     id="path943"
     style="fill:#e7ffd1;fill-opacity:1" />
  <path
     style="color:#000000;text-indent:0;text-transform:none;direction:ltr;baseline-shift:baseline;fill:#b82426;fill-opacity:1;enable-background:accumulate"
     d="m 23.892851,11.254824 -0.167212,0.167211 -1.003265,1.170478 -0.167212,0.250816 0.250817,0.08361 1.588505,0.836056 -1.170478,0.418028 -0.16721,0.08361 v 0.167211 l 0.16721,1.755717 v 0.418028 L 23.558429,16.354772 26.1502,14.51545 c 0.53029,0.0792 1.523067,0.145032 3.177012,0.334422 1.74009,0.199263 4.129569,0.566512 7.106474,1.254084 l 0.16721,0.08361 0.08361,-0.250816 c 0.4311,-1.419086 -0.01632,-2.625501 -0.668844,-3.678645 l -0.08361,-0.08361 h -0.08361 c -3.692716,-0.440894 -6.639176,0.457302 -9.698247,1.003267 l -2.090137,-1.755717 -0.167212,-0.167211 z m 0,0.668844 2.006532,1.672112 h 0.08361 0.08361 c 3.096027,-0.540782 5.962589,-1.305382 9.531035,-0.919662 0.539889,0.907494 0.948565,1.806051 0.668845,2.926195 -2.844789,-0.643481 -5.165278,-0.976917 -6.855657,-1.170478 -1.753943,-0.200841 -2.940464,-0.263846 -3.344223,-0.334423 h -0.08361 -0.08361 l -2.257349,1.588507 -0.08361,-1.086873 1.421293,-0.585239 0.501634,-0.167211 -0.418028,-0.250816 -1.755715,-0.919662 0.58524,-0.75245 z"
     fill="#000000"
     fill-opacity="1"
     fill-rule="nonzero"
     stroke="none"
     marker="none"
     visibility="visible"
     display="inline"
     overflow="visible"
     id="path945" />
  <path
     style="fill:#b82426;fill-opacity:1;stroke:none;stroke-width:0.0383776;stroke-linecap:round;stroke-linejoin:round"
     d="m 23.645054,15.482953 c -0.01169,-0.07915 -0.03225,-0.30855 -0.04569,-0.50977 l -0.02444,-0.365853 0.761896,-0.310711 c 0.419044,-0.170891 0.854886,-0.340862 0.968539,-0.377713 l 0.206643,-0.067 -0.206643,-0.128342 c -0.113653,-0.07059 -0.599036,-0.331797 -1.078626,-0.580462 -0.479591,-0.248665 -0.872483,-0.462882 -0.873091,-0.47604 -6.13e-4,-0.01316 0.120569,-0.181141 0.269281,-0.373297 l 0.270386,-0.349375 0.986479,0.823703 c 0.928948,0.775665 0.995616,0.823734 1.143143,0.824234 0.08616,2.93e-4 0.805741,-0.119782 1.59906,-0.26683 2.27603,-0.421882 3.037195,-0.540087 4.250367,-0.660062 0.552332,-0.05462 2.608464,-0.06656 3.266373,-0.01897 l 0.445621,0.03224 0.1743,0.313161 c 0.431594,0.775441 0.584532,1.329374 0.556266,2.014769 -0.01015,0.246145 -0.03056,0.475713 -0.04535,0.510152 -0.02448,0.057 -0.06368,0.05451 -0.437089,-0.02775 -2.80855,-0.618723 -5.514116,-1.018253 -8.972101,-1.324907 l -0.963144,-0.08541 -1.098178,0.774076 c -0.603997,0.425742 -1.105957,0.774076 -1.115465,0.774076 -0.0095,0 -0.02685,-0.06476 -0.03854,-0.143916 z"
     id="path947" />
  <path
     d="m 50.865145,9.6663176 c -2.344599,0 -4.301664,1.4737934 -5.083218,3.5448764 l 0.267538,0.200653 C 49.126798,12.874329 52.000047,12.019334 55.613942,12.40858 54.666805,10.771306 52.89267,9.6663176 50.865145,9.6663176 Z m -4.81568,4.6150274 -0.60196,0.468191 c -0.0095,0.131816 -0.06689,0.267083 -0.06689,0.401307 0,3.025291 2.459238,5.484525 5.484525,5.484525 2.766389,0 5.0464,-2.084641 5.417641,-4.748796 -5.886225,-1.347098 -9.33709,-1.448583 -10.233321,-1.605227 z"
     fill="#000000"
     fill-opacity="1"
     stroke="none"
     id="path949"
     style="fill:#e7ffd1;fill-opacity:1" />
  <path
     style="color:#000000;text-indent:0;text-transform:none;direction:ltr;baseline-shift:baseline;fill:#8556d8;fill-opacity:1;enable-background:accumulate"
     d="m 43.875722,11.254824 -0.167212,0.167211 -1.003266,1.170478 -0.167212,0.250816 0.250817,0.08361 1.588505,0.836056 -1.170478,0.418028 -0.16721,0.08361 v 0.167211 l 0.16721,1.755717 v 0.418028 l 0.334423,-0.250817 2.591771,-1.839322 c 0.53029,0.0792 1.523067,0.145032 3.177012,0.334422 1.74009,0.199263 4.129569,0.566512 7.106474,1.254084 l 0.16721,0.08361 0.08361,-0.250816 c 0.4311,-1.419086 -0.01632,-2.625501 -0.668844,-3.678645 l -0.08361,-0.08361 h -0.08361 c -3.692716,-0.440894 -6.639176,0.457302 -9.698247,1.003267 l -2.090137,-1.755717 -0.167212,-0.167211 z m 0,0.668844 2.006532,1.672112 h 0.08361 0.08361 c 3.096026,-0.540782 5.962589,-1.305382 9.531034,-0.919662 0.539889,0.907494 0.948565,1.806051 0.668845,2.926195 -2.844788,-0.643481 -5.165277,-0.976917 -6.855656,-1.170478 -1.753943,-0.200841 -2.940465,-0.263846 -3.344223,-0.334423 h -0.08361 -0.08361 l -2.257349,1.588507 -0.08361,-1.086873 1.421293,-0.585239 0.501634,-0.167211 -0.418028,-0.250816 -1.755715,-0.919662 0.585239,-0.75245 z"
     fill="#000000"
     fill-opacity="1"
     fill-rule="nonzero"
     stroke="none"
     marker="none"
     visibility="visible"
     display="inline"
     overflow="visible"
     id="path951" />
  <path
     style="fill:#8556d8;fill-opacity:1;stroke:none;stroke-width:0.0383776;stroke-linecap:round;stroke-linejoin:round"
     d="m 43.627925,15.482953 c -0.01169,-0.07915 -0.03225,-0.30855 -0.04569,-0.50977 l -0.02444,-0.365853 0.761897,-0.310711 c 0.419043,-0.170891 0.854886,-0.340862 0.968539,-0.377713 l 0.206643,-0.067 -0.206643,-0.128342 c -0.113653,-0.07059 -0.599036,-0.331797 -1.078627,-0.580462 -0.479591,-0.248665 -0.872482,-0.462882 -0.87309,-0.47604 -6.13e-4,-0.01316 0.120569,-0.181141 0.269281,-0.373297 l 0.270386,-0.349375 0.986479,0.823703 c 0.928948,0.775665 0.995616,0.823734 1.143143,0.824234 0.08616,2.93e-4 0.805741,-0.119782 1.59906,-0.26683 2.27603,-0.421882 3.037195,-0.540087 4.250367,-0.660062 0.552332,-0.05462 2.608464,-0.06656 3.266373,-0.01897 l 0.445621,0.03224 0.1743,0.313161 c 0.431594,0.775441 0.584532,1.329374 0.556266,2.014769 -0.01015,0.246145 -0.03056,0.475713 -0.04535,0.510152 -0.02448,0.057 -0.06368,0.05451 -0.437089,-0.02775 -2.80855,-0.618723 -5.514116,-1.018253 -8.972101,-1.324907 l -0.963144,-0.08541 -1.098178,0.774076 c -0.603997,0.425742 -1.105957,0.774076 -1.115465,0.774076 -0.0095,0 -0.02685,-0.06476 -0.03854,-0.143916 z"
     id="path953" />
  <path
     d="m 70.848018,9.6663176 c -2.344599,0 -4.301664,1.4737934 -5.083218,3.5448764 l 0.267538,0.200653 C 69.109671,12.874329 71.98292,12.019334 75.596815,12.40858 74.649678,10.771306 72.875543,9.6663176 70.848018,9.6663176 Z m -4.81568,4.6150274 -0.60196,0.468191 c -0.0095,0.131816 -0.06689,0.267083 -0.06689,0.401307 0,3.025291 2.459238,5.484525 5.484525,5.484525 2.766389,0 5.0464,-2.084641 5.417641,-4.748796 -5.886225,-1.347098 -9.33709,-1.448583 -10.233321,-1.605227 z"
     fill="#000000"
     fill-opacity="1"
     stroke="none"
     id="path955"
     style="fill:#e7ffd1;fill-opacity:1" />
  <path
     style="color:#000000;text-indent:0;text-transform:none;direction:ltr;baseline-shift:baseline;fill:#b9782a;fill-opacity:1;enable-background:accumulate"
     d="m 63.858595,11.254824 -0.167212,0.167211 -1.003266,1.170478 -0.167212,0.250816 0.250817,0.08361 1.588505,0.836056 -1.170478,0.418028 -0.16721,0.08361 v 0.167211 l 0.16721,1.755717 v 0.418028 l 0.334423,-0.250817 2.591771,-1.839322 c 0.53029,0.0792 1.523067,0.145032 3.177012,0.334422 1.74009,0.199263 4.129569,0.566512 7.106474,1.254084 l 0.16721,0.08361 0.08361,-0.250816 c 0.4311,-1.419086 -0.01632,-2.625501 -0.668844,-3.678645 l -0.08361,-0.08361 h -0.08361 c -3.692716,-0.440894 -6.639176,0.457302 -9.698247,1.003267 l -2.090137,-1.755717 -0.167212,-0.167211 z m 0,0.668844 2.006532,1.672112 h 0.08361 0.08361 c 3.096026,-0.540782 5.962589,-1.305382 9.531034,-0.919662 0.539889,0.907494 0.948565,1.806051 0.668845,2.926195 -2.844788,-0.643481 -5.165277,-0.976917 -6.855656,-1.170478 -1.753943,-0.200841 -2.940465,-0.263846 -3.344223,-0.334423 h -0.08361 -0.08361 l -2.257349,1.588507 -0.08361,-1.086873 1.421293,-0.585239 0.501634,-0.167211 -0.418028,-0.250816 -1.755715,-0.919662 0.585239,-0.75245 z"
     fill="#000000"
     fill-opacity="1"
     fill-rule="nonzero"
     stroke="none"
     marker="none"
     visibility="visible"
     display="inline"
     overflow="visible"
     id="path957" />
  <path
     style="fill:#b9782a;fill-opacity:1;stroke:none;stroke-width:0.0383776;stroke-linecap:round;stroke-linejoin:round"
     d="m 63.610798,15.482953 c -0.01169,-0.07915 -0.03225,-0.30855 -0.04569,-0.50977 l -0.02444,-0.365853 0.761897,-0.310711 c 0.419043,-0.170891 0.854886,-0.340862 0.968539,-0.377713 l 0.206643,-0.067 -0.206643,-0.128342 c -0.113653,-0.07059 -0.599036,-0.331797 -1.078627,-0.580462 -0.479591,-0.248665 -0.872482,-0.462882 -0.87309,-0.47604 -6.13e-4,-0.01316 0.120569,-0.181141 0.269281,-0.373297 l 0.270386,-0.349375 0.986479,0.823703 c 0.928948,0.775665 0.995616,0.823734 1.143143,0.824234 0.08616,2.93e-4 0.805741,-0.119782 1.59906,-0.26683 2.27603,-0.421882 3.037195,-0.540087 4.250367,-0.660062 0.552332,-0.05462 2.608464,-0.06656 3.266373,-0.01897 l 0.445621,0.03224 0.1743,0.313161 c 0.431594,0.775441 0.584532,1.329374 0.556266,2.014769 -0.01015,0.246145 -0.03056,0.475713 -0.04535,0.510152 -0.02448,0.057 -0.06368,0.05451 -0.437089,-0.02775 -2.80855,-0.618723 -5.514116,-1.018253 -8.972101,-1.324907 l -0.963144,-0.08541 -1.098178,0.774076 c -0.603997,0.425742 -1.105957,0.774076 -1.115465,0.774076 -0.0095,0 -0.02685,-0.06476 -0.03854,-0.143916 z"
     id="path959" />
</svg>
