<?xml version="1.0" encoding="UTF-8" standalone="no"?>
<svg
   xmlns:dc="http://purl.org/dc/elements/1.1/"
   xmlns:cc="http://creativecommons.org/ns#"
   xmlns:rdf="http://www.w3.org/1999/02/22-rdf-syntax-ns#"
   xmlns:svg="http://www.w3.org/2000/svg"
   xmlns="http://www.w3.org/2000/svg"
   xmlns:sodipodi="http://sodipodi.sourceforge.net/DTD/sodipodi-0.dtd"
   xmlns:inkscape="http://www.inkscape.org/namespaces/inkscape"
   height="300px"
   width="300px"
   fill="#000000"
   viewBox="0 0 100 100"
   x="0px"
   y="0px"
   version="1.1"
   id="svg20"
   sodipodi:docname="selection.svg"
   inkscape:version="1.0.2 (e86c870879, 2021-01-15)"
   inkscape:export-filename="/home/francisco/Syncthing/Francisco syncs/Classes/FCUL/2020-2021/Epidemiologia/FE2021/docs/classes/C03_assets/selection.png"
   inkscape:export-xdpi="143.3"
   inkscape:export-ydpi="143.3">
  <metadata
     id="metadata26">
    <rdf:RDF>
      <cc:Work
         rdf:about="">
        <dc:format>image/svg+xml</dc:format>
        <dc:type
           rdf:resource="http://purl.org/dc/dcmitype/StillImage" />
        <dc:title></dc:title>
      </cc:Work>
    </rdf:RDF>
  </metadata>
  <defs
     id="defs24" />
  <sodipodi:namedview
     pagecolor="#000000"
     bordercolor="#666666"
     borderopacity="1"
     objecttolerance="10"
     gridtolerance="10"
     guidetolerance="10"
     inkscape:pageopacity="0"
     inkscape:pageshadow="2"
     inkscape:window-width="2560"
     inkscape:window-height="1384"
     id="namedview22"
     showgrid="false"
     inkscape:zoom="2.4566667"
     inkscape:cx="150"
     inkscape:cy="150"
     inkscape:window-x="0"
     inkscape:window-y="0"
     inkscape:window-maximized="1"
     inkscape:current-layer="svg20" />
  <path
     d="m 14.690395,49.883832 c -2.532987,0 -4.8368838,-2.304416 -4.8374028,-4.837403 -5.19e-4,-2.534026 2.3044158,-4.843636 4.8374028,-4.843636 2.534026,0 4.841041,2.307527 4.837402,4.843636 -0.0036,2.532985 -2.306493,4.837403 -4.837402,4.837403 z"
     color="#000"
     id="path2"
     style="fill:#ffffff;fill-opacity:1" />
  <path
     d="m 5.0000049,56.173702 c 0,0.272208 0.00623,0.534997 0.057143,0.792727 l 3.5854544,18.151688 c 0.349518,1.769468 2.1859737,3.301818 4.2275327,3.301818 l 3.641558,0 c 2.04052,0 3.87977,-1.532005 4.227533,-3.301818 l 3.566753,-18.151688 c 0.05065,-0.25778 0.0748,-0.520519 0.0748,-0.792727 0,-2.412468 -1.947013,-4.378182 -4.35948,-4.378182 l -10.6618177,0 C 6.9470133,51.79552 5,53.760195 5,56.173702 z"
     color="#000"
     id="path4"
     style="fill:#ffffff;fill-opacity:1" />
  <path
     d="m 38.233252,42.550495 c -2.532987,0 -4.836883,-2.304416 -4.837403,-4.837403 -5.19e-4,-2.534026 2.304416,-4.843636 4.837403,-4.843636 2.534026,0 4.841041,2.307527 4.837402,4.843636 -0.0036,2.532985 -2.306493,4.837403 -4.837402,4.837403 z"
     color="#000000"
     id="path6"
     style="fill:#77ff74;fill-opacity:1" />
  <path
     d="m 28.539745,48.840365 c 0,0.272208 0.0062,0.534997 0.05714,0.792727 L 32.18234,67.78478 c 0.349518,1.769468 2.185974,3.301818 4.227532,3.301818 h 3.641558 c 2.04052,0 3.87977,-1.532005 4.227533,-3.301818 l 3.566753,-18.151688 c 0.05065,-0.25778 0.0748,-0.520519 0.0748,-0.792727 0,-2.412468 -1.947013,-4.378182 -4.35948,-4.378182 H 32.899218 c -2.412468,0 -4.359481,1.964675 -4.359481,4.378182 z"
     color="#000000"
     id="path8"
     style="fill:#77ff74;fill-opacity:1" />
  <path
     d="m 61.772992,49.883832 c -2.532987,0 -4.836883,-2.304416 -4.837403,-4.837403 -5.19e-4,-2.534026 2.304416,-4.843636 4.837403,-4.843636 2.534026,0 4.841041,2.307527 4.837402,4.843636 -0.0036,2.532985 -2.306493,4.837403 -4.837402,4.837403 z"
     color="#000"
     id="path10"
     style="fill:#ffffff;fill-opacity:1" />
  <path
     d="m 52.079485,56.173702 c 0,0.272208 0.0062,0.534997 0.05714,0.792727 l 3.585455,18.151688 c 0.349518,1.769468 2.185974,3.301818 4.227532,3.301818 l 3.641559,0 c 2.040519,0 3.879769,-1.532005 4.227532,-3.301818 l 3.566753,-18.151688 c 0.05065,-0.25778 0.07481,-0.520519 0.07481,-0.792727 0,-2.412468 -1.947013,-4.378182 -4.359481,-4.378182 l -10.661818,0 c -2.412468,0 -4.359481,1.964675 -4.359481,4.378182 z"
     color="#000"
     id="path12"
     style="fill:#ffffff;fill-opacity:1" />
  <path
     d="m 85.312732,49.883832 c -2.532987,0 -4.836883,-2.304416 -4.837403,-4.837403 -5.19e-4,-2.534026 2.304416,-4.843636 4.837403,-4.843636 2.534026,0 4.841041,2.307527 4.837403,4.843636 -0.0036,2.532985 -2.306494,4.837403 -4.837403,4.837403 z"
     color="#000"
     id="path14"
     style="fill:#ffffff;fill-opacity:1" />
  <path
     d="m 75.619226,56.173702 c 0,0.272208 0.0062,0.534997 0.05714,0.792727 l 3.585455,18.151688 c 0.349518,1.769468 2.185974,3.301818 4.227532,3.301818 l 3.641559,0 c 2.040519,0 3.879769,-1.532005 4.227532,-3.301818 l 3.566754,-18.151688 c 0.05065,-0.25778 0.0748,-0.520519 0.0748,-0.792727 0,-2.412468 -1.947013,-4.378182 -4.359481,-4.378182 l -10.661818,0 c -2.412467,0 -4.35948,1.964675 -4.35948,4.378182 z"
     color="#000"
     id="path16"
     style="fill:#ffffff;fill-opacity:1" />
  <path
     d="m 36.319351,11.356602 v 11.483407 l -3.49885,-3.498851 -2.703386,2.703386 8.116137,8.122119 8.122119,-8.122119 -2.709367,-2.703386 -3.49885,3.498851 V 11.356602 Z"
     color="#000000"
     id="path18"
     style="fill:#ffffff;fill-opacity:1" />
</svg>
