<?xml version="1.0" encoding="UTF-8" standalone="no"?>
<svg
   xmlns:dc="http://purl.org/dc/elements/1.1/"
   xmlns:cc="http://creativecommons.org/ns#"
   xmlns:rdf="http://www.w3.org/1999/02/22-rdf-syntax-ns#"
   xmlns:svg="http://www.w3.org/2000/svg"
   xmlns="http://www.w3.org/2000/svg"
   xmlns:sodipodi="http://sodipodi.sourceforge.net/DTD/sodipodi-0.dtd"
   xmlns:inkscape="http://www.inkscape.org/namespaces/inkscape"
   height="254"
   width="271"
   fill="#000000"
   version="1.1"
   x="0px"
   y="0px"
   viewBox="0 0 90.333343 84.666682"
   enable-background="new 0 0 100 100"
   xml:space="preserve"
   id="svg30"
   sodipodi:docname="tub.svg"
   inkscape:version="1.0.2 (e86c870879, 2021-01-15)"
   inkscape:export-filename="/home/francisco/Syncthing/Francisco syncs/Classes/FCUL/2020-2021/Epidemiologia/FE2021/docs/classes/C03_assets/tub_sampling.png"
   inkscape:export-xdpi="120"
   inkscape:export-ydpi="120"><metadata
     id="metadata36"><rdf:RDF><cc:Work
         rdf:about=""><dc:format>image/svg+xml</dc:format><dc:type
           rdf:resource="http://purl.org/dc/dcmitype/StillImage" /><dc:title /></cc:Work></rdf:RDF></metadata><defs
     id="defs34"><marker
       style="overflow:visible"
       id="marker1665"
       refX="0"
       refY="0"
       orient="auto"
       inkscape:stockid="Arrow1Send"
       inkscape:isstock="true"><path
         transform="matrix(-0.2,0,0,-0.2,-1.2,0)"
         style="fill:#ffffff;fill-opacity:1;fill-rule:evenodd;stroke:#ffffff;stroke-width:1pt;stroke-opacity:1"
         d="M 0,0 5,-5 -12.5,0 5,5 Z"
         id="path1663" /></marker><marker
       style="overflow:visible"
       id="marker1593"
       refX="0"
       refY="0"
       orient="auto"
       inkscape:stockid="Arrow1Send"
       inkscape:isstock="true"
       inkscape:collect="always"><path
         transform="matrix(-0.2,0,0,-0.2,-1.2,0)"
         style="fill:#ffffff;fill-opacity:1;fill-rule:evenodd;stroke:#ffffff;stroke-width:1pt;stroke-opacity:1"
         d="M 0,0 5,-5 -12.5,0 5,5 Z"
         id="path1591" /></marker><marker
       style="overflow:visible"
       id="marker1529"
       refX="0"
       refY="0"
       orient="auto"
       inkscape:stockid="Arrow1Send"
       inkscape:isstock="true"
       inkscape:collect="always"><path
         transform="matrix(-0.2,0,0,-0.2,-1.2,0)"
         style="fill:#ffffff;fill-opacity:1;fill-rule:evenodd;stroke:#ffffff;stroke-width:1pt;stroke-opacity:1"
         d="M 0,0 5,-5 -12.5,0 5,5 Z"
         id="path1527" /></marker><marker
       style="overflow:visible"
       id="marker1473"
       refX="0"
       refY="0"
       orient="auto"
       inkscape:stockid="Arrow1Send"
       inkscape:isstock="true"
       inkscape:collect="always"><path
         transform="matrix(-0.2,0,0,-0.2,-1.2,0)"
         style="fill:#ffffff;fill-opacity:1;fill-rule:evenodd;stroke:#ffffff;stroke-width:1pt;stroke-opacity:1"
         d="M 0,0 5,-5 -12.5,0 5,5 Z"
         id="path1471" /></marker><marker
       style="overflow:visible"
       id="marker1425"
       refX="0"
       refY="0"
       orient="auto"
       inkscape:stockid="Arrow1Send"
       inkscape:isstock="true"
       inkscape:collect="always"><path
         transform="matrix(-0.2,0,0,-0.2,-1.2,0)"
         style="fill:#ffffff;fill-opacity:1;fill-rule:evenodd;stroke:#ffffff;stroke-width:1pt;stroke-opacity:1"
         d="M 0,0 5,-5 -12.5,0 5,5 Z"
         id="path1423" /></marker><marker
       style="overflow:visible"
       id="marker1385"
       refX="0"
       refY="0"
       orient="auto"
       inkscape:stockid="Arrow1Send"
       inkscape:isstock="true"
       inkscape:collect="always"><path
         transform="matrix(-0.2,0,0,-0.2,-1.2,0)"
         style="fill:#ffffff;fill-opacity:1;fill-rule:evenodd;stroke:#ffffff;stroke-width:1pt;stroke-opacity:1"
         d="M 0,0 5,-5 -12.5,0 5,5 Z"
         id="path1383" /></marker><marker
       style="overflow:visible"
       id="Arrow1Send"
       refX="0"
       refY="0"
       orient="auto"
       inkscape:stockid="Arrow1Send"
       inkscape:isstock="true"
       inkscape:collect="always"><path
         transform="matrix(-0.2,0,0,-0.2,-1.2,0)"
         style="fill:#ffffff;fill-opacity:1;fill-rule:evenodd;stroke:#ffffff;stroke-width:1pt;stroke-opacity:1"
         d="M 0,0 5,-5 -12.5,0 5,5 Z"
         id="path1077" /></marker></defs><sodipodi:namedview
     pagecolor="#000000"
     bordercolor="#666666"
     borderopacity="1"
     objecttolerance="10"
     gridtolerance="10"
     guidetolerance="10"
     inkscape:pageopacity="0"
     inkscape:pageshadow="2"
     inkscape:window-width="2560"
     inkscape:window-height="1384"
     id="namedview32"
     showgrid="false"
     inkscape:zoom="1.7371257"
     inkscape:cx="-102.06305"
     inkscape:cy="106.63948"
     inkscape:window-x="0"
     inkscape:window-y="0"
     inkscape:window-maximized="1"
     inkscape:current-layer="g28"
     inkscape:document-rotation="0" /><g
     id="g28"><path
       fill="#ffffff"
       d="m 82.166665,30.666659 h -69.8 V 8.4333269 c 0,-2.0999991 1.7,-3.7999982 3.8,-3.7999982 2.1,0 3.8,1.6999991 3.8,3.7999982 v 1.4999994 c 0,0.9999997 0.8,1.7999997 1.8,1.7999997 1,0 1.8,-0.8 1.8,-1.7999997 V 8.4333269 c 0,-4.0999982 -3.3,-7.3999967 -7.4,-7.3999967 -4.1,0 -7.3999996,3.2999985 -7.3999996,7.3999967 V 30.866659 c -2.7999994,0.6 -4.7999994,3 -4.7999994,5.9 0,2.9 2.1,5.4 4.7999994,5.9 v 11 c 0,7.6 4.6999996,14 11.2999996,16.7 -0.1,0.2 -0.3,0.3 -0.5,0.5 -2.1,2.1 -2.1,5.5 0,7.6 1.1,1.1 2.4,1.6 3.8,1.6 1.4,0 2.8,-0.5 3.8,-1.6 2.4,-2.3 4.1,-5.4 4.9,-6.9 h 27.9 c 0.8,1.5 2.4,4.5 4.7,6.8 1.1,1.1 2.5,1.7 3.9,1.7 1.3,0 2.7,-0.5 3.7,-1.5 2.2,-2.1 2.2,-5.5 0.2,-7.6 -0.2,-0.2 -0.3,-0.4 -0.5,-0.6 6.6,-2.7 11.3,-9.2 11.3,-16.7 v -11 c 2.8,-0.5 4.9,-3 4.9,-5.9 0,-3.4 -2.7,-6.1 -6,-6.1 z m -57.4,45.2 c -0.4,0.4 -0.8,0.5 -1.3,0.5 -0.5,0 -0.9,-0.2 -1.3,-0.5 -0.7,-0.7 -0.7,-1.8 0,-2.5 0.6,-0.6 1.2,-1.3 1.7,-2 0.9,0.1 1.9,0.2 2.8,0.2 h 1.3 c -0.8,1.3 -1.9,3 -3.2,4.3 z m 45.1,-2.5 c 0.7,0.7 0.7,1.9 -0.1,2.5 -0.3,0.3 -0.8,0.5 -1.2,0.5 -0.5,0 -0.9,-0.2 -1.3,-0.6 -1.3,-1.3 -2.4,-3 -3.1,-4.3 h 1.2 c 1,0 2,-0.1 2.9,-0.2 0.5,0.8 1,1.5 1.6,2.1 z m 9.8,-19.7 c 0,6.3 -4.1,11.7 -9.7,13.6 -1.2,0.4 -2.4,0.6 -3.7,0.7 h -40.4 c -1.3,-0.1 -2.5,-0.3 -3.7,-0.7 -5.7,-1.9 -9.9,-7.3 -9.9,-13.6 v -10.9 h 67.4 z"
       id="path2"
       sodipodi:nodetypes="ccssssssssscscscssscccsscccscscsscscscsscsscscsscccssccs" /><path
       style="fill:none;stroke:#000000;stroke-width:4;stroke-linecap:round;stroke-linejoin:miter;stroke-miterlimit:4;stroke-dasharray:none;stroke-opacity:1"
       d="M 10.554258,36.591261 H 82.103294"
       id="path38" /><path
       style="fill:#81c7c1;fill-opacity:1;stroke:#002183;stroke-width:0.188382px;stroke-linecap:butt;stroke-linejoin:miter;stroke-opacity:1"
       d="m 20.533316,13.811084 -1.55993,2.493257 c 0.174124,0.96711 0.58855,1.26187 1.387183,0.481639 z"
       id="path863"
       sodipodi:nodetypes="cccc" /><path
       style="fill:#81c7c1;fill-opacity:1;stroke:#002183;stroke-width:0.188382px;stroke-linecap:butt;stroke-linejoin:miter;stroke-opacity:1"
       d="m 22.024404,13.054433 -0.760079,2.841125 c 0.450111,0.873511 0.932763,1.033761 1.46744,0.05361 z"
       id="path863-3"
       sodipodi:nodetypes="cccc" /><path
       style="fill:#81c7c1;fill-opacity:1;stroke:#002183;stroke-width:0.188382px;stroke-linecap:butt;stroke-linejoin:miter;stroke-opacity:1"
       d="m 20.262247,20.036073 -1.401517,2.585626 c 0.234056,0.954379 0.666046,1.222739 1.414503,0.394254 z"
       id="path863-6"
       sodipodi:nodetypes="cccc" /><path
       style="fill:#81c7c1;fill-opacity:1;stroke:#002183;stroke-width:0.188382px;stroke-linecap:butt;stroke-linejoin:miter;stroke-opacity:1"
       d="m 25.398538,18.243066 -0.01562,2.940998 c 0.656696,0.731007 1.164199,0.763773 1.433161,-0.319849 z"
       id="path863-7"
       sodipodi:nodetypes="cccc" /><path
       style="fill:#81c7c1;fill-opacity:1;stroke:#002183;stroke-width:0.188382px;stroke-linecap:butt;stroke-linejoin:miter;stroke-opacity:1"
       d="m 22.249231,17.622148 -0.760079,2.841125 c 0.450111,0.873511 0.932763,1.033761 1.46744,0.05361 z"
       id="path863-5"
       sodipodi:nodetypes="cccc" /><path
       style="fill:#81c7c1;fill-opacity:1;stroke:#002183;stroke-width:0.188382px;stroke-linecap:butt;stroke-linejoin:miter;stroke-opacity:1"
       d="m 18.268872,17.908588 -1.380677,2.596814 c 0.241724,0.952466 0.675859,1.217343 1.417628,0.382865 z"
       id="path863-35"
       sodipodi:nodetypes="cccc" /><path
       style="fill:#81c7c1;fill-opacity:1;stroke:#002183;stroke-width:0.188382px;stroke-linecap:butt;stroke-linejoin:miter;stroke-opacity:1"
       d="m 27.18489,24.491913 0.165651,2.93637 c 0.700497,0.689149 1.209054,0.690577 1.410726,-0.40756 z"
       id="path863-62"
       sodipodi:nodetypes="cccc" /><path
       style="fill:#81c7c1;fill-opacity:1;stroke:#002183;stroke-width:0.188382px;stroke-linecap:butt;stroke-linejoin:miter;stroke-opacity:1"
       d="m 23.668039,14.410062 0.150347,2.937193 c 0.696894,0.692791 1.205438,0.696869 1.412831,-0.400201 z"
       id="path863-9"
       sodipodi:nodetypes="cccc" /><path
       style="fill:#81c7c1;fill-opacity:1;stroke:#002183;stroke-width:0.188382px;stroke-linecap:butt;stroke-linejoin:miter;stroke-opacity:1"
       d="m 21.184322,22.59311 -0.760079,2.841125 c 0.450111,0.873511 0.932763,1.033761 1.46744,0.05361 z"
       id="path863-1"
       sodipodi:nodetypes="cccc" /><path
       style="fill:#81c7c1;fill-opacity:1;stroke:#002183;stroke-width:0.188382px;stroke-linecap:butt;stroke-linejoin:miter;stroke-opacity:1"
       d="m 16.814377,21.820553 -1.0726,2.738475 c 0.349749,0.918312 0.811487,1.131458 1.452275,0.217147 z"
       id="path863-2"
       sodipodi:nodetypes="cccc" /><path
       style="fill:#81c7c1;fill-opacity:1;stroke:#002183;stroke-width:0.188382px;stroke-linecap:butt;stroke-linejoin:miter;stroke-opacity:1"
       d="m 22.990977,24.646721 -0.760079,2.841125 c 0.450111,0.873511 0.932763,1.033761 1.46744,0.05361 z"
       id="path863-70"
       sodipodi:nodetypes="cccc" /><path
       style="fill:#81c7c1;fill-opacity:1;stroke:#002183;stroke-width:0.188382px;stroke-linecap:butt;stroke-linejoin:miter;stroke-opacity:1"
       d="m 19.223582,25.251652 -1.108353,2.7242 c 0.337698,0.922811 0.796606,1.141984 1.449307,0.236138 z"
       id="path863-93"
       sodipodi:nodetypes="cccc" /><path
       style="fill:#81c7c1;fill-opacity:1;stroke:#002183;stroke-width:0.188382px;stroke-linecap:butt;stroke-linejoin:miter;stroke-opacity:1"
       d="m 24.61626,21.747072 -0.350706,2.920054 c 0.569103,0.801089 1.069565,0.891482 1.460276,-0.154425 z"
       id="path863-60"
       sodipodi:nodetypes="cccc" /><text
       xml:space="preserve"
       style="font-size:4.44444px;line-height:1.25;font-family:Ubuntu;-inkscape-font-specification:Ubuntu;letter-spacing:0px;word-spacing:0px;fill:#ffffff;fill-opacity:1;stroke-width:0.333333;stroke-miterlimit:4;stroke-dasharray:none"
       x="25.874504"
       y="14.644629"
       id="text986"><tspan
         sodipodi:role="line"
         id="tspan984"
         x="25.874504"
         y="14.644629"
         style="font-size:4.44444px;fill:#ffffff;fill-opacity:1;stroke-width:0.333333;stroke-miterlimit:4;stroke-dasharray:none">Incidence</tspan></text><path
       style="fill:none;stroke:#ffffff;stroke-width:2.56667;stroke-linecap:round;stroke-linejoin:round;stroke-miterlimit:4;stroke-dasharray:none;stroke-opacity:1"
       d="M 17.354419,66.595615 H 3.5882016 v 17.865396"
       id="path1012" /><path
       style="fill:#81c7c1;fill-opacity:1;stroke:none;stroke-width:1.84711;stroke-linecap:round;stroke-linejoin:round;stroke-miterlimit:4;stroke-dasharray:none;stroke-opacity:1"
       d="M 23.763198,67.618189 C 20.04691,67.068475 16.017627,64.692251 14.164354,61.957374 12.654531,59.729329 12.508115,58.974047 12.504547,53.395322 l -0.0032,-5.035696 h 33.514257 33.51425 v 4.760223 c 0,2.629829 -0.133227,5.263074 -0.297687,5.883814 -0.80234,3.028352 -3.739343,6.104999 -7.1903,7.532176 -3.2394,1.339683 -2.973016,1.32634 -26.026263,1.303636 -11.88294,-0.0117 -21.480753,-0.107147 -22.252373,-0.221286 z"
       id="path1034" /><text
       xml:space="preserve"
       style="font-size:4.44444px;line-height:1.25;font-family:Ubuntu;-inkscape-font-specification:Ubuntu;letter-spacing:0px;word-spacing:0px;fill:#ffffff;fill-opacity:1;stroke-width:0.333333;stroke-miterlimit:4;stroke-dasharray:none"
       x="48.351536"
       y="54.986183"
       id="text986-6"><tspan
         sodipodi:role="line"
         id="tspan984-2"
         x="48.351536"
         y="54.986183"
         style="font-size:4.44444px;fill:#ffffff;fill-opacity:1;stroke-width:0.333333;stroke-miterlimit:4;stroke-dasharray:none">Prevalence</tspan></text><text
       xml:space="preserve"
       style="font-size:4.44444px;line-height:1.25;font-family:Ubuntu;-inkscape-font-specification:Ubuntu;letter-spacing:0px;word-spacing:0px;fill:#ffffff;fill-opacity:1;stroke-width:0.333333;stroke-miterlimit:4;stroke-dasharray:none"
       x="5.9361868"
       y="82.944801"
       id="text986-6-1"><tspan
         sodipodi:role="line"
         id="tspan984-2-8"
         x="5.9361868"
         y="82.944801"
         style="font-size:4.44444px;fill:#ffffff;fill-opacity:1;stroke-width:0.333333;stroke-miterlimit:4;stroke-dasharray:none">Deaths</tspan></text><path
       style="fill:none;stroke:#ffffff;stroke-width:0.333333;stroke-linecap:butt;stroke-linejoin:miter;stroke-miterlimit:4;stroke-dasharray:none;stroke-opacity:1;marker-end:url(#Arrow1Send)"
       d="m 59.636991,29.228869 c 1.344739,-1.783333 1.112197,-3.34189 0,-4.775087 -1.183585,-1.41387 -1.877451,-2.943806 0,-5.083153 0.743071,-1.473823 2.18315,-2.421229 0,-5.563624 -1.250995,-1.543442 -1.064506,-3.199032 0,-4.9231224"
       id="path1060"
       sodipodi:nodetypes="ccccc" /><path
       style="fill:none;stroke:#ffffff;stroke-width:0.333333;stroke-linecap:butt;stroke-linejoin:miter;stroke-miterlimit:4;stroke-dasharray:none;stroke-opacity:1;marker-end:url(#marker1385)"
       d="m 62.303659,29.228869 c 1.344739,-1.783333 1.112197,-3.34189 0,-4.775087 -1.183585,-1.41387 -1.877451,-2.943806 0,-5.083153 0.743071,-1.473823 2.18315,-2.421229 0,-5.563624 -1.250995,-1.543442 -1.064506,-3.199032 0,-4.9231224"
       id="path1381"
       sodipodi:nodetypes="ccccc" /><path
       style="fill:none;stroke:#ffffff;stroke-width:0.333333;stroke-linecap:butt;stroke-linejoin:miter;stroke-miterlimit:4;stroke-dasharray:none;stroke-opacity:1;marker-end:url(#marker1425)"
       d="m 65.636994,29.228869 c 1.344739,-1.783333 1.112197,-3.34189 0,-4.775087 -1.183585,-1.41387 -1.877451,-2.943806 0,-5.083153 0.743071,-1.473823 2.18315,-2.421229 0,-5.563624 -1.250995,-1.543442 -1.064506,-3.199032 0,-4.9231224"
       id="path1421"
       sodipodi:nodetypes="ccccc" /><path
       style="fill:none;stroke:#ffffff;stroke-width:0.333333;stroke-linecap:butt;stroke-linejoin:miter;stroke-miterlimit:4;stroke-dasharray:none;stroke-opacity:1;marker-end:url(#marker1473)"
       d="m 68.970329,29.228869 c 1.344739,-1.783333 1.112197,-3.34189 0,-4.775087 -1.183585,-1.41387 -1.877451,-2.943806 0,-5.083153 0.743071,-1.473823 2.18315,-2.421229 0,-5.563624 -1.250995,-1.543442 -1.064506,-3.199032 0,-4.9231224"
       id="path1469"
       sodipodi:nodetypes="ccccc" /><path
       style="fill:none;stroke:#ffffff;stroke-width:0.333333;stroke-linecap:butt;stroke-linejoin:miter;stroke-miterlimit:4;stroke-dasharray:none;stroke-opacity:1;marker-end:url(#marker1529)"
       d="m 71.636997,29.228869 c 1.344739,-1.783333 1.112197,-3.34189 0,-4.775087 -1.183585,-1.41387 -1.877451,-2.943806 0,-5.083153 0.743071,-1.473823 2.18315,-2.421229 0,-5.563624 -1.250995,-1.543442 -1.064506,-3.199032 0,-4.9231224"
       id="path1525"
       sodipodi:nodetypes="ccccc" /><path
       style="fill:none;stroke:#ffffff;stroke-width:0.333333;stroke-linecap:butt;stroke-linejoin:miter;stroke-miterlimit:4;stroke-dasharray:none;stroke-opacity:1;marker-end:url(#marker1593)"
       d="m 74.970332,29.228869 c 1.344739,-1.783333 1.112197,-3.34189 0,-4.775087 -1.183585,-1.41387 -1.877451,-2.943806 0,-5.083153 0.743071,-1.473823 2.18315,-2.421229 0,-5.563624 -1.250995,-1.543442 -1.064506,-3.199032 0,-4.9231224"
       id="path1589"
       sodipodi:nodetypes="ccccc" /><path
       style="fill:none;stroke:#ffffff;stroke-width:0.333333;stroke-linecap:butt;stroke-linejoin:miter;stroke-miterlimit:4;stroke-dasharray:none;stroke-opacity:1;marker-end:url(#marker1665)"
       d="m 74.970332,29.228869 c 1.344739,-1.783333 1.112197,-3.34189 0,-4.775087 -1.183585,-1.41387 -1.877451,-2.943806 0,-5.083153 0.743071,-1.473823 2.18315,-2.421229 0,-5.563624 -1.250995,-1.543442 -1.064506,-3.199032 0,-4.9231224"
       id="path1661"
       sodipodi:nodetypes="ccccc" /><text
       xml:space="preserve"
       style="font-size:4.44444px;line-height:1.25;font-family:Ubuntu;-inkscape-font-specification:Ubuntu;letter-spacing:0px;word-spacing:0px;fill:#ffffff;fill-opacity:1;stroke-width:0.333333;stroke-miterlimit:4;stroke-dasharray:none"
       x="58.989918"
       y="5.0750098"
       id="text986-7"><tspan
         sodipodi:role="line"
         id="tspan984-9"
         x="58.989918"
         y="5.0750098"
         style="font-size:4.44444px;fill:#ffffff;fill-opacity:1;stroke-width:0.333333;stroke-miterlimit:4;stroke-dasharray:none">Recovery</tspan></text><circle
       style="fill:#f2ff00;fill-opacity:0.397063;stroke:#ffffff;stroke-width:0.124702;stroke-linecap:round;stroke-linejoin:round;stroke-miterlimit:4;stroke-dasharray:none;stroke-opacity:1"
       id="path918"
       sodipodi:type="arc"
       sodipodi:cx="22.486082"
       sodipodi:cy="23.048922"
       sodipodi:rx="9.2798824"
       sodipodi:ry="1.8468319"
       sodipodi:start="1.5766548"
       sodipodi:end="1.5707963"
       sodipodi:arc-type="arc"
       d="m 22.431716,24.895722 a 9.2798824,1.8468319 0 0 1 -9.225427,-1.854915 9.2798824,1.8468319 0 0 1 9.306976,-1.838709 9.2798824,1.8468319 0 0 1 9.25269,1.849528 9.2798824,1.8468319 0 0 1 -9.279873,1.844128"
       sodipodi:open="true" /><text
       xml:space="preserve"
       style="font-size:4.44444px;line-height:1.25;font-family:Ubuntu;-inkscape-font-specification:Ubuntu;text-align:center;letter-spacing:0px;word-spacing:0px;text-anchor:middle;fill:#ffffff;fill-opacity:1;stroke-width:0.333333;stroke-miterlimit:4;stroke-dasharray:none"
       x="40.562885"
       y="21.450235"
       id="text986-3"><tspan
         sodipodi:role="line"
         id="tspan984-6"
         x="40.562885"
         y="21.450235"
         style="font-size:4.44444px;text-align:center;text-anchor:middle;fill:#ffca00;fill-opacity:1;stroke-width:0.333333;stroke-miterlimit:4;stroke-dasharray:none">Incidence</tspan><tspan
         sodipodi:role="line"
         x="40.562885"
         y="27.005785"
         style="font-size:4.44444px;text-align:center;text-anchor:middle;fill:#ffca00;fill-opacity:1;stroke-width:0.333333;stroke-miterlimit:4;stroke-dasharray:none"
         id="tspan944">sampling</tspan></text></g></svg>
