<?xml version="1.0" encoding="UTF-8" standalone="no"?>
<svg
   xmlns:dc="http://purl.org/dc/elements/1.1/"
   xmlns:cc="http://creativecommons.org/ns#"
   xmlns:rdf="http://www.w3.org/1999/02/22-rdf-syntax-ns#"
   xmlns:svg="http://www.w3.org/2000/svg"
   xmlns="http://www.w3.org/2000/svg"
   xmlns:sodipodi="http://sodipodi.sourceforge.net/DTD/sodipodi-0.dtd"
   xmlns:inkscape="http://www.inkscape.org/namespaces/inkscape"
   width="210mm"
   height="297mm"
   viewBox="0 0 210 297"
   version="1.1"
   id="svg8"
   sodipodi:docname="E_D_table.svg"
   inkscape:version="1.0.2 (e86c870879, 2021-01-15)"
   inkscape:export-filename="/home/francisco/Syncthing/Francisco syncs/Classes/FCUL/2020-2021/Epidemiologia/FE2021/docs/classes/C02_assets/E_D_table_small.png"
   inkscape:export-xdpi="56.795029"
   inkscape:export-ydpi="56.795029">
  <defs
     id="defs2" />
  <sodipodi:namedview
     id="base"
     pagecolor="#ffffff"
     bordercolor="#666666"
     borderopacity="1.0"
     inkscape:pageopacity="0.0"
     inkscape:pageshadow="2"
     inkscape:zoom="1.4"
     inkscape:cx="-46.86799"
     inkscape:cy="97.310676"
     inkscape:document-units="mm"
     inkscape:current-layer="layer1"
     inkscape:document-rotation="0"
     showgrid="false"
     inkscape:window-width="2560"
     inkscape:window-height="1384"
     inkscape:window-x="0"
     inkscape:window-y="0"
     inkscape:window-maximized="1" />
  <metadata
     id="metadata5">
    <rdf:RDF>
      <cc:Work
         rdf:about="">
        <dc:format>image/svg+xml</dc:format>
        <dc:type
           rdf:resource="http://purl.org/dc/dcmitype/StillImage" />
        <dc:title />
      </cc:Work>
    </rdf:RDF>
  </metadata>
  <g
     inkscape:label="Layer 1"
     inkscape:groupmode="layer"
     id="layer1">
    <rect
       style="fill:#ffffff;fill-opacity:1;stroke:none;stroke-width:0.649999;stroke-miterlimit:4;stroke-dasharray:none"
       id="rect977"
       width="60"
       height="40"
       x="30.000002"
       y="20" />
    <rect
       style="fill:#d0d0d0;fill-opacity:1;stroke:none;stroke-width:0.649999;stroke-miterlimit:4;stroke-dasharray:none"
       id="rect934"
       width="30.000002"
       height="80"
       x="90"
       y="0" />
    <rect
       style="fill:#d0d0d0;fill-opacity:1;stroke:none;stroke-width:0.649999;stroke-miterlimit:4;stroke-dasharray:none"
       id="rect932"
       width="120"
       height="20"
       x="0"
       y="60" />
    <rect
       style="fill:#8c8c8c;fill-opacity:1;stroke:none;stroke-width:0.649999;stroke-miterlimit:4;stroke-dasharray:none"
       id="rect930"
       width="30.000002"
       height="80"
       x="0"
       y="0" />
    <rect
       style="fill:#8c8c8c;fill-opacity:1;stroke:none;stroke-width:0.65;stroke-miterlimit:4;stroke-dasharray:none"
       id="rect928"
       width="120"
       height="20"
       x="0"
       y="0" />
    <path
       d=" M 0,0.0 a 0.0,0.0 0 0 1 0.0,-0.0 h 30.0 a 0.0,0.0 0 0 1 0.0,0.0 a 0.0,0.0 0 0 1 0.0,-0.0 h 30.0 a 0.0,0.0 0 0 1 0.0,0.0 a 0.0,0.0 0 0 1 0.0,-0.0 h 30.0 a 0.0,0.0 0 0 1 0.0,0.0 a 0.0,0.0 0 0 1 0.0,-0.0 h 30.0 a 0.0,0.0 0 0 1 0.0,0.0M 0,20.0 a 0.0,0.0 0 0 1 0.0,-0.0 a 0.0,0.0 0 0 1 -0.0,-0.0 m 0.0,0.0 h 30.0 a 0.0,0.0 0 0 1 0.0,0.0 a 0.0,0.0 0 0 1 0.0,-0.0 a 0.0,0.0 0 0 1 -0.0,-0.0 a 0.0,0.0 0 0 1 -0.0,0.0 m 0.0,0 h 30.0 a 0.0,0.0 0 0 1 0.0,0.0 a 0.0,0.0 0 0 1 0.0,-0.0 a 0.0,0.0 0 0 1 -0.0,-0.0 a 0.0,0.0 0 0 1 -0.0,0.0 m 0.0,0 h 30.0 a 0.0,0.0 0 0 1 0.0,0.0 a 0.0,0.0 0 0 1 0.0,-0.0 a 0.0,0.0 0 0 1 -0.0,-0.0 a 0.0,0.0 0 0 1 -0.0,0.0 m 0.0,0 h 30.0 m 0.0,-0.0 a 0.0,0.0 0 0 1 -0.0,0.0 a 0.0,0.0 0 0 1 0.0,0.0M 0,40.0 a 0.0,0.0 0 0 1 0.0,-0.0 a 0.0,0.0 0 0 1 -0.0,-0.0 m 0.0,0.0 h 30.0 a 0.0,0.0 0 0 1 0.0,0.0 a 0.0,0.0 0 0 1 0.0,-0.0 a 0.0,0.0 0 0 1 -0.0,-0.0 a 0.0,0.0 0 0 1 -0.0,0.0 m 0.0,0 h 30.0 a 0.0,0.0 0 0 1 0.0,0.0 a 0.0,0.0 0 0 1 0.0,-0.0 a 0.0,0.0 0 0 1 -0.0,-0.0 a 0.0,0.0 0 0 1 -0.0,0.0 m 0.0,0 h 30.0 a 0.0,0.0 0 0 1 0.0,0.0 a 0.0,0.0 0 0 1 0.0,-0.0 a 0.0,0.0 0 0 1 -0.0,-0.0 a 0.0,0.0 0 0 1 -0.0,0.0 m 0.0,0 h 30.0 m 0.0,-0.0 a 0.0,0.0 0 0 1 -0.0,0.0 a 0.0,0.0 0 0 1 0.0,0.0M 0,60.0 a 0.0,0.0 0 0 1 0.0,-0.0 a 0.0,0.0 0 0 1 -0.0,-0.0 m 0.0,0.0 h 30.0 a 0.0,0.0 0 0 1 0.0,0.0 a 0.0,0.0 0 0 1 0.0,-0.0 a 0.0,0.0 0 0 1 -0.0,-0.0 a 0.0,0.0 0 0 1 -0.0,0.0 m 0.0,0 h 30.0 a 0.0,0.0 0 0 1 0.0,0.0 a 0.0,0.0 0 0 1 0.0,-0.0 a 0.0,0.0 0 0 1 -0.0,-0.0 a 0.0,0.0 0 0 1 -0.0,0.0 m 0.0,0 h 30.0 a 0.0,0.0 0 0 1 0.0,0.0 a 0.0,0.0 0 0 1 0.0,-0.0 a 0.0,0.0 0 0 1 -0.0,-0.0 a 0.0,0.0 0 0 1 -0.0,0.0 m 0.0,0 h 30.0 m 0.0,-0.0 a 0.0,0.0 0 0 1 -0.0,0.0 a 0.0,0.0 0 0 1 0.0,0.0m 0,20.0 a 0.0,0.0 0 0 1 -0.0,0.0 h -30.0 a 0.0,0.0 0 0 1 -0.0,-0.0 a 0.0,0.0 0 0 1 -0.0,0.0 h -30.0 a 0.0,0.0 0 0 1 -0.0,-0.0 a 0.0,0.0 0 0 1 -0.0,0.0 h -30.0 a 0.0,0.0 0 0 1 -0.0,-0.0 a 0.0,0.0 0 0 1 -0.0,0.0 h -30.0 a 0.0,0.0 0 0 1 -0.0,-0.0 M 0.0,0.0 v 20.0 M 0.0,20.0 v 20.0 M 0.0,40.0 v 20.0 M 0.0,60.0 v 20.0 M 30.0,0.0 v 20.0 M 30.0,20.0 v 20.0 M 30.0,40.0 v 20.0 M 30.0,60.0 v 20.0 M 60.0,0.0 v 20.0 M 60.0,20.0 v 20.0 M 60.0,40.0 v 20.0 M 60.0,60.0 v 20.0 M 90.0,0.0 v 20.0 M 90.0,20.0 v 20.0 M 90.0,40.0 v 20.0 M 90.0,60.0 v 20.0 M 120.0,0.0 v 20.0 M 120.0,20.0 v 20.0 M 120.0,40.0 v 20.0 M 120.0,60.0 v 20.0"
       style="fill:none;stroke:#000000;stroke-width:0.5;fill-opacity:1;stroke-miterlimit:4;stroke-dasharray:none"
       id="path836" />
    <text
       xml:space="preserve"
       style="font-size:10.5833px;line-height:1.25;font-family:Ubuntu;-inkscape-font-specification:Ubuntu;letter-spacing:0px;word-spacing:0px;stroke-width:0.264583"
       x="39.859798"
       y="15.886034"
       id="text845"><tspan
         sodipodi:role="line"
         id="tspan843"
         x="39.859798"
         y="15.886034"
         style="stroke-width:0.264583">D</tspan></text>
    <text
       xml:space="preserve"
       style="font-size:10.5833px;line-height:1.25;font-family:Ubuntu;-inkscape-font-specification:Ubuntu;letter-spacing:0px;word-spacing:0px;stroke-width:0.264583"
       x="71.234924"
       y="15.886034"
       id="text849"><tspan
         sodipodi:role="line"
         id="tspan847"
         x="71.234924"
         y="15.886034"
         style="stroke-width:0.264583">D</tspan></text>
    <text
       xml:space="preserve"
       style="font-size:10.5833px;line-height:1.25;font-family:Ubuntu;-inkscape-font-specification:Ubuntu;letter-spacing:0px;word-spacing:0px;stroke-width:0.264583"
       x="92.887444"
       y="15.811951"
       id="text853"><tspan
         sodipodi:role="line"
         id="tspan851"
         x="92.887444"
         y="15.811951"
         style="stroke-width:0.264583">Total</tspan></text>
    <text
       xml:space="preserve"
       style="font-size:10.5833px;line-height:1.25;font-family:Ubuntu;-inkscape-font-specification:Ubuntu;letter-spacing:0px;word-spacing:0px;stroke-width:0.264583"
       x="11.231689"
       y="33.342724"
       id="text857"><tspan
         sodipodi:role="line"
         id="tspan855"
         x="11.231689"
         y="33.342724"
         style="stroke-width:0.264583">E</tspan></text>
    <text
       xml:space="preserve"
       style="font-size:10.5833px;line-height:1.25;font-family:Ubuntu;-inkscape-font-specification:Ubuntu;letter-spacing:0px;word-spacing:0px;stroke-width:0.264583"
       x="2.3999498"
       y="74.037529"
       id="text865"><tspan
         sodipodi:role="line"
         id="tspan863"
         x="2.3999498"
         y="74.037529"
         style="stroke-width:0.264583">Total</tspan></text>
    <g
       id="g975"
       transform="translate(0,-1.2004576)">
      <text
         xml:space="preserve"
         style="font-size:10.5833px;line-height:1.25;font-family:Ubuntu;-inkscape-font-specification:Ubuntu;letter-spacing:0px;word-spacing:0px;stroke-width:0.264583"
         x="11.231689"
         y="54.955528"
         id="text861"><tspan
           sodipodi:role="line"
           id="tspan859"
           x="11.231689"
           y="54.955528"
           style="stroke-width:0.264583">E</tspan></text>
      <path
         style="fill:none;stroke:#000000;stroke-width:0.65;stroke-linecap:butt;stroke-linejoin:miter;stroke-miterlimit:4;stroke-dasharray:none;stroke-opacity:1"
         d="m 12.146659,46.64728 h 4.494068"
         id="path867" />
    </g>
    <path
       style="fill:none;stroke:#000000;stroke-width:0.741553;stroke-linecap:butt;stroke-linejoin:miter;stroke-miterlimit:4;stroke-dasharray:none;stroke-opacity:1"
       d="m 71.978931,7.0305785 h 5.849208"
       id="path867-3" />
    <text
       xml:space="preserve"
       style="font-size:10.5833px;line-height:1.25;font-family:Ubuntu;-inkscape-font-specification:Ubuntu;letter-spacing:0px;word-spacing:0px;stroke-width:0.264583"
       x="41.182713"
       y="32.437851"
       id="text914"><tspan
         sodipodi:role="line"
         id="tspan912"
         x="41.182713"
         y="32.437851"
         style="stroke-width:0.264583">a</tspan></text>
    <text
       xml:space="preserve"
       style="font-size:10.5833px;line-height:1.25;font-family:Ubuntu;-inkscape-font-specification:Ubuntu;letter-spacing:0px;word-spacing:0px;stroke-width:0.264583"
       x="71.885796"
       y="33.71843"
       id="text918"><tspan
         sodipodi:role="line"
         id="tspan916"
         x="71.885796"
         y="33.71843"
         style="stroke-width:0.264583">b</tspan></text>
    <text
       xml:space="preserve"
       style="font-size:10.5833px;line-height:1.25;font-family:Ubuntu;-inkscape-font-specification:Ubuntu;letter-spacing:0px;word-spacing:0px;stroke-width:0.264583"
       x="41.156254"
       y="52.1954"
       id="text922"><tspan
         sodipodi:role="line"
         id="tspan920"
         x="41.156254"
         y="52.1954"
         style="stroke-width:0.264583">c</tspan></text>
    <text
       xml:space="preserve"
       style="font-size:10.5833px;line-height:1.25;font-family:Ubuntu;-inkscape-font-specification:Ubuntu;letter-spacing:0px;word-spacing:0px;stroke-width:0.264583"
       x="72.192711"
       y="53.48127"
       id="text926"><tspan
         sodipodi:role="line"
         id="tspan924"
         x="72.192711"
         y="53.48127"
         style="stroke-width:0.264583">d</tspan></text>
    <text
       xml:space="preserve"
       style="font-size:10.5833px;line-height:1.25;font-family:Ubuntu;-inkscape-font-specification:Ubuntu;letter-spacing:0px;word-spacing:0px;stroke-width:0.264583"
       x="35.451862"
       y="72.82045"
       id="text938"><tspan
         sodipodi:role="line"
         id="tspan936"
         x="35.451862"
         y="72.82045"
         style="stroke-width:0.264583">a+c</tspan></text>
    <text
       xml:space="preserve"
       style="font-size:10.5833px;line-height:1.25;font-family:Ubuntu;-inkscape-font-specification:Ubuntu;letter-spacing:0px;word-spacing:0px;stroke-width:0.264583"
       x="65.937996"
       y="74.042824"
       id="text942"><tspan
         sodipodi:role="line"
         id="tspan940"
         x="65.937996"
         y="74.042824"
         style="stroke-width:0.264583">b+d</tspan></text>
    <text
       xml:space="preserve"
       style="font-size:10.5833px;line-height:1.25;font-family:Ubuntu;-inkscape-font-specification:Ubuntu;letter-spacing:0px;word-spacing:0px;stroke-width:0.264583"
       x="96.178825"
       y="33.71843"
       id="text946"><tspan
         sodipodi:role="line"
         id="tspan944"
         x="96.178825"
         y="33.71843"
         style="stroke-width:0.264583">a+b</tspan></text>
    <text
       xml:space="preserve"
       style="font-size:10.5833px;line-height:1.25;font-family:Ubuntu;-inkscape-font-specification:Ubuntu;letter-spacing:0px;word-spacing:0px;stroke-width:0.264583"
       x="96.591583"
       y="53.48127"
       id="text950"><tspan
         sodipodi:role="line"
         id="tspan948"
         x="96.591583"
         y="53.48127"
         style="stroke-width:0.264583">c+d</tspan></text>
    <text
       xml:space="preserve"
       style="font-size:7.05556px;line-height:1.25;font-family:Ubuntu;-inkscape-font-specification:Ubuntu;letter-spacing:0px;word-spacing:0px;stroke-width:0.264583"
       x="91.523903"
       y="72.695221"
       id="text954"><tspan
         sodipodi:role="line"
         x="91.523903"
         y="72.695221"
         style="font-size:7.05556px;stroke-width:0.264583"
         id="tspan956">a+b+c+d</tspan></text>
  </g>
</svg>
