<?xml version="1.0" encoding="UTF-8" standalone="no"?>
<svg
   xmlns:dc="http://purl.org/dc/elements/1.1/"
   xmlns:cc="http://creativecommons.org/ns#"
   xmlns:rdf="http://www.w3.org/1999/02/22-rdf-syntax-ns#"
   xmlns:svg="http://www.w3.org/2000/svg"
   xmlns="http://www.w3.org/2000/svg"
   xmlns:sodipodi="http://sodipodi.sourceforge.net/DTD/sodipodi-0.dtd"
   xmlns:inkscape="http://www.inkscape.org/namespaces/inkscape"
   height="300px"
   width="300px"
   fill="#000000"
   data-name="Line stroke cutting expand"
   viewBox="0 0 512 512"
   x="0px"
   y="0px"
   version="1.1"
   id="svg48"
   sodipodi:docname="epidemic.svg"
   inkscape:version="1.0.2 (e86c870879, 2021-01-15)"
   inkscape:export-filename="/home/francisco/Syncthing/Francisco syncs/Classes/FCUL/2020-2021/Epidemiologia/FE2021/docs/classes/C01_assets/epidemic.png"
   inkscape:export-xdpi="61.340649"
   inkscape:export-ydpi="61.340649">
  <metadata
     id="metadata54">
    <rdf:RDF>
      <cc:Work
         rdf:about="">
        <dc:format>image/svg+xml</dc:format>
        <dc:type
           rdf:resource="http://purl.org/dc/dcmitype/StillImage" />
        <dc:title>virus_epidemic -outbreak -virus -spread -world -infectious disease </dc:title>
      </cc:Work>
    </rdf:RDF>
  </metadata>
  <defs
     id="defs52" />
  <sodipodi:namedview
     pagecolor="#000000"
     bordercolor="#666666"
     borderopacity="1"
     objecttolerance="10"
     gridtolerance="10"
     guidetolerance="10"
     inkscape:pageopacity="0"
     inkscape:pageshadow="2"
     inkscape:window-width="2560"
     inkscape:window-height="1384"
     id="namedview50"
     showgrid="false"
     inkscape:zoom="1.7371257"
     inkscape:cx="277.18966"
     inkscape:cy="197.25013"
     inkscape:window-x="0"
     inkscape:window-y="0"
     inkscape:window-maximized="1"
     inkscape:current-layer="svg48"
     inkscape:document-rotation="0" />
  <title
     id="title2">virus_epidemic -outbreak -virus -spread -world -infectious disease </title>
  <g
     id="g46"
     style="stroke:#ffffff;stroke-opacity:1;fill:#ffffff;fill-opacity:1">
    <path
       d="M256,56a198.2646,198.2646,0,0,1,84.6113,18.7251l6.7774-14.4941A214.1565,214.1565,0,0,0,256,40c-5.53,0-11.1177.2119-16.6069.6294l1.2138,15.9541C245.6938,56.1963,250.873,56,256,56Z"
       id="path4"
       style="stroke:#ffffff;stroke-opacity:1;fill:#ffffff;fill-opacity:1" />
    <path
       d="M136,256a119.2291,119.2291,0,0,0,66.0454-19.7949L254.2646,247.81a8,8,0,0,0,9.3248-10.3394l-17.7168-53.1494A118.9273,118.9273,0,0,0,256,136,120,120,0,0,0,50.2856,52.0176L61.7134,63.2158A104.0228,104.0228,0,0,1,230.0562,180.439a7.9978,7.9978,0,0,0-.3584,5.9526l14.2446,42.7339-41.8071-9.29a8.0006,8.0006,0,0,0-6.3409,1.268A104.0126,104.0126,0,0,1,50.6367,76.5767l-13.123-9.1534A120.0128,120.0128,0,0,0,136,256Z"
       id="path6"
       style="stroke:#ffffff;stroke-opacity:1;fill:#ffffff;fill-opacity:1" />
    <rect
       x="120"
       y="96"
       width="16"
       height="16"
       id="rect8"
       style="stroke:#ffffff;stroke-opacity:1;fill:#ffffff;fill-opacity:1" />
    <rect
       x="128"
       y="128"
       width="16"
       height="16"
       id="rect10"
       style="stroke:#ffffff;stroke-opacity:1;fill:#ffffff;fill-opacity:1" />
    <rect
       x="104"
       y="152"
       width="16"
       height="16"
       id="rect12"
       style="stroke:#ffffff;stroke-opacity:1;fill:#ffffff;fill-opacity:1" />
    <rect
       x="160"
       y="136"
       width="16"
       height="16"
       id="rect14"
       style="stroke:#ffffff;stroke-opacity:1;fill:#ffffff;fill-opacity:1" />
    <path
       d="M48,120v32H64v-8h8.4977a63.6944,63.6944,0,0,0,12.9639,31.2249l-6.03,6.03-5.657-5.657L62.4609,186.9116l22.6275,22.6275,11.3135-11.3135-5.657-5.657,6.03-6.03A63.6944,63.6944,0,0,0,128,199.5023V208h-8v16h32V208h-8v-8.4977a63.6944,63.6944,0,0,0,31.2249-12.9639l6.03,6.03-5.657,5.657,11.3135,11.3135,22.6275-22.6275-11.3135-11.3135-5.657,5.657-6.03-6.03A63.6944,63.6944,0,0,0,199.5023,144H208v8h16V120H208v8h-8.4977a63.6944,63.6944,0,0,0-12.9639-31.2249l6.03-6.03,5.657,5.657,11.3135-11.3135L186.9116,62.4609,175.5981,73.7744l5.657,5.657-6.03,6.03A63.6944,63.6944,0,0,0,144,72.4977V64h8V48H120V64h8v8.4977A63.6944,63.6944,0,0,0,96.7751,85.4616l-6.03-6.03,5.657-5.657L85.0884,62.4609,62.4609,85.0884,73.7744,96.4019l5.657-5.657,6.03,6.03A63.6944,63.6944,0,0,0,72.4977,128H64v-8Zm88-32a48,48,0,1,1-48,48A48.0543,48.0543,0,0,1,136,88Z"
       id="path16"
       style="stroke:#ffffff;stroke-opacity:1;fill:#ffffff;fill-opacity:1" />
    <path
       d="M307.1821,159.9985a15.989,15.989,0,0,0,12.8145-6.3994l12.7993-17.0659a16,16,0,0,0-7.74-24.7788l-26.94-8.98a16,16,0,0,0-21.06,15.1787v16.6192a15.9652,15.9652,0,0,0,7.125,13.3125l14.14,9.4272A15.9307,15.9307,0,0,0,307.1821,159.9985Zm-14.1264-42.0454,26.94,8.98L307.1963,144l-14.1411-9.4277Zm0,16.62-8-.0009h8Z"
       id="path18"
       style="stroke:#ffffff;stroke-opacity:1;fill:#ffffff;fill-opacity:1" />
    <path
       d="M296,318.8818a16.8633,16.8633,0,0,0-8.2534-14.5771L274.2393,296.2a17,17,0,0,0-25.7466,14.5771v16.209a16.9609,16.9609,0,0,0,25.747,14.5772l13.5069-8.1045h0A16.8628,16.8628,0,0,0,296,318.8818Zm-16.4854.8575h0l-13.5064,8.1045a1,1,0,0,1-1.5151-.8575v-16.209a.9178.9178,0,0,1,.5073-.87,1.0113,1.0113,0,0,1,.5024-.1435.9543.9543,0,0,1,.5049.1562l13.5073,8.1045a1,1,0,0,1,0,1.7149Z"
       id="path20"
       style="stroke:#ffffff;stroke-opacity:1;fill:#ffffff;fill-opacity:1" />
    <rect
       x="280"
       y="176"
       width="16"
       height="16"
       id="rect22"
       style="stroke:#ffffff;stroke-opacity:1;fill:#ffffff;fill-opacity:1" />
    <path
       d="M337.9531,203.4258l-14.7026,1.479a27.9123,27.9123,0,0,0-25.1387,26.0439L296.9,249.6064a27.846,27.846,0,0,0,13.8213,25.9942l20.1645,11.7754a27.9512,27.9512,0,0,0,36.6407-7.543l2.561-3.4668,21.458,8.4409a20.0354,20.0354,0,0,0,25.9331-11.2915l11.7139-29.7793a20.0347,20.0347,0,0,0-11.2915-25.9321l-3.5288-1.3882,7.1972-9.7431A28.32,28.32,0,0,0,423.3213,204l-13.8565-7.999a12.4751,12.4751,0,0,1-.7631,1.1636l-13.3912,18.1284a8,8,0,0,0,3.5064,12.1982l13.228,5.2031a4.0533,4.0533,0,0,1,2.2578,5.1861l-11.7138,29.7793a4.0364,4.0364,0,0,1-5.1866,2.2583L370.23,259.229a8.0026,8.0026,0,0,0-9.3628,2.6914l-6.21,8.4058a11.98,11.98,0,0,1-15.7026,3.2334L318.79,261.7842a11.9336,11.9336,0,0,1-5.9234-11.1406l1.2124-18.6578a11.9613,11.9613,0,0,1,10.7735-11.1611l14.7031-1.479a27.9126,27.9126,0,0,0,25.1377-26.0439l.7177-11.0357a12.006,12.006,0,0,1,.7393-3.4512l-14.9766-5.63a27.9792,27.9792,0,0,0-1.729,8.0444l-.7177,11.0347A11.9623,11.9623,0,0,1,337.9531,203.4258Z"
       id="path24"
       style="stroke:#ffffff;stroke-opacity:1;fill:#ffffff;fill-opacity:1" />
    <rect
       x="216"
       y="272"
       width="16"
       height="16"
       id="rect26"
       style="stroke:#ffffff;stroke-opacity:1;fill:#ffffff;fill-opacity:1" />
    <path
       d="M376,157.6685V192a8,8,0,0,0,13.1216,6.146L416.2,175.5811A72.977,72.977,0,0,0,424,176a71.9948,71.9948,0,1,0-48-18.3315ZM424,48a56,56,0,0,1,0,112,56.6429,56.6429,0,0,1-8.9561-.7114,8.0025,8.0025,0,0,0-6.39,1.7529L392,174.92V153.9624a8.0013,8.0013,0,0,0-2.9961-6.2422A56.0014,56.0014,0,0,1,424,48Z"
       id="path28"
       style="stroke:#ffffff;stroke-opacity:1;fill:#ffffff;fill-opacity:1" />
    <rect
       x="416"
       y="64"
       width="16"
       height="56"
       id="rect30"
       style="stroke:#ffffff;stroke-opacity:1;fill:#ffffff;fill-opacity:1" />
    <rect
       x="416"
       y="128"
       width="16"
       height="16"
       id="rect32"
       style="stroke:#ffffff;stroke-opacity:1;fill:#ffffff;fill-opacity:1" />
    <path
       d="M477.7974,408.0376a56.6244,56.6244,0,0,1,1.8076,8.9136l15.8867-1.9024a72.7,72.7,0,0,0-2.3193-11.4384,71.9994,71.9994,0,0,0-89.11-49.2676,72.9413,72.9413,0,0,0-7.38,2.56l-31.031-13.6488A27.9941,27.9941,0,0,0,368,331.998,12.0116,12.0116,0,0,1,379.998,320h65.5489q-2.2289,6.5938-4.9278,13.0557l14.7627,6.1689a216.9068,216.9068,0,0,0,6.1988-149.6841L446.355,194.46A201.5384,201.5384,0,0,1,450.2153,304H379.998A28.03,28.03,0,0,0,352,331.998a11.9769,11.9769,0,0,1-9.93,11.8179l-30.8989,5.4072A27.952,27.952,0,0,0,288,376.8022v11.2A12.0116,12.0116,0,0,1,276.002,400H243.998A28.03,28.03,0,0,0,216,427.998v24.0138a198.2382,198.2382,0,0,1-37.0557-11.3927l-6.1689,14.7627a216.7039,216.7039,0,0,0,166.4487,0l-6.1689-14.7627A198.7948,198.7948,0,0,1,256,456a202.802,202.802,0,0,1-24-1.4173V427.998A12.0116,12.0116,0,0,1,243.998,416h32.004A28.03,28.03,0,0,0,304,388.002v-11.2a11.9779,11.9779,0,0,1,9.93-11.8183l30.8984-5.4072a28.0149,28.0149,0,0,0,9.7388-3.6537l8.4414,29.3163a72.0062,72.0062,0,1,0,132.3579,47.8232l-15.8584-2.125a56.0082,56.0082,0,1,1-101.251-39.7368,7.9991,7.9991,0,0,0,1.1519-6.8272L373.61,364.2349l19.8437,8.728a7.996,7.996,0,0,0,6.626-.0835,56.6718,56.6718,0,0,1,8.4092-3.1616,56.0007,56.0007,0,0,1,69.3086,38.32Z"
       id="path34"
       style="stroke:#ffffff;stroke-opacity:1;fill:#ffffff;fill-opacity:1" />
    <rect
       x="416"
       y="384"
       width="16"
       height="56"
       id="rect36"
       style="stroke:#ffffff;stroke-opacity:1;fill:#ffffff;fill-opacity:1" />
    <rect
       x="416"
       y="448"
       width="16"
       height="16"
       id="rect38"
       style="stroke:#ffffff;stroke-opacity:1;fill:#ffffff;fill-opacity:1" />
    <path
       d="M172.8823,367.6187l-2.0752-10.375A11.8037,11.8037,0,0,1,177.0884,344.4l7.5566-3.7783A27.777,27.777,0,0,0,172.2231,288H145.8887l-19.93-9.9648a28.0621,28.0621,0,0,0-28.0537,1.7465L85.5776,288H58.5347A201.7526,201.7526,0,0,1,56,256c0-5.127.1963-10.3062.5835-15.3931l-15.9541-1.2138C40.2119,244.8823,40,250.47,40,256a214.7059,214.7059,0,0,0,16.6187,83.2246l14.7626-6.1689A198.6015,198.6015,0,0,1,61.7849,304H88a7.9958,7.9958,0,0,0,4.4375-1.3438l14.3428-9.562a12.0294,12.0294,0,0,1,12.0234-.7485l21.6187,10.81A7.9964,7.9964,0,0,0,144,304h28.2231a11.7772,11.7772,0,0,1,5.2666,22.311l-7.5566,3.7784a27.838,27.838,0,0,0-14.8154,30.2919l2.0752,10.375A11.8041,11.8041,0,0,1,150.9116,383.6l-2.4643,1.2322A72.154,72.154,0,0,0,136,370.3315V336a8,8,0,0,0-13.1216-6.146L95.8008,352.4189A72.9934,72.9934,0,0,0,88,352a71.89,71.89,0,1,0,67.6059,47.1411l2.461-1.2305A27.838,27.838,0,0,0,172.8823,367.6187ZM88,480a56,56,0,0,1,0-112,56.647,56.647,0,0,1,8.9565.7114,8.0032,8.0032,0,0,0,6.39-1.7529L120,353.0806v20.957a8.0013,8.0013,0,0,0,2.9961,6.2422A56.0014,56.0014,0,0,1,88,480Z"
       id="path40"
       style="stroke:#ffffff;stroke-opacity:1;fill:#ffffff;fill-opacity:1" />
    <rect
       x="80"
       y="384"
       width="16"
       height="56"
       id="rect42"
       style="stroke:#ffffff;stroke-opacity:1;fill:#ffffff;fill-opacity:1" />
    <rect
       x="80"
       y="448"
       width="16"
       height="16"
       id="rect44"
       style="stroke:#ffffff;stroke-opacity:1;fill:#ffffff;fill-opacity:1" />
  </g>
</svg>
